<?xml version="1.0" encoding="UTF-8"?>
<!DOCTYPE svg PUBLIC "-//W3C//DTD SVG 1.1//EN" "http://www.w3.org/Graphics/SVG/1.1/DTD/svg11.dtd">
<!-- Creator: CorelDRAW -->
<svg xmlns="http://www.w3.org/2000/svg" xml:space="preserve" width="35.5514mm" height="12.0788mm" version="1.1" style="shape-rendering:geometricPrecision; text-rendering:geometricPrecision; image-rendering:optimizeQuality; fill-rule:evenodd; clip-rule:evenodd"
viewBox="0 0 926.71 314.85"
 xmlns:xlink="http://www.w3.org/1999/xlink"
 xmlns:xodm="http://www.corel.com/coreldraw/odm/2003">
 <defs>
  <style type="text/css">
   <![CDATA[
    .str2 {stroke:#FEFEFE;stroke-width:3.91;stroke-miterlimit:10}
    .str0 {stroke:#FEFEFE;stroke-width:9.24;stroke-linecap:round;stroke-linejoin:round;stroke-miterlimit:4}
    .str1 {stroke:#FEFEFE;stroke-width:3.91;stroke-linecap:round;stroke-linejoin:round;stroke-miterlimit:10}
    .fil1 {fill:none}
    .fil3 {fill:#0098DA}
    .fil0 {fill:#0072B9}
    .fil4 {fill:#006CB5}
    .fil2 {fill:#0267B1}
   ]]>
  </style>
 </defs>
 <g id="Layer_x0020_1">
  <metadata id="CorelCorpID_0Corel-Layer"/>
  <g id="_2351434681744">
   <polygon class="fil0" points="75.87,144.07 255.14,304.42 359.88,286.68 180.2,125.37 "/>
   <polygon class="fil1 str0" points="75.87,144.07 255.14,304.42 359.88,286.68 180.2,125.37 "/>
   <polygon class="fil0" points="351.61,54.01 320.41,114.72 385.28,172.75 455.33,33.73 "/>
   <polygon class="fil1 str0" points="351.61,54.01 320.41,114.72 385.28,172.75 455.33,33.73 "/>
   <polygon class="fil0" points="100.06,32.53 279.75,193.83 384.07,175.14 204.8,14.78 "/>
   <polygon class="fil1 str0" points="100.06,32.53 279.75,193.83 384.07,175.14 204.8,14.78 "/>
   <polygon class="fil0" points="4.62,285.47 108.33,265.19 139.52,204.49 74.67,146.47 "/>
   <polygon class="fil1 str0" points="4.62,285.47 108.33,265.19 139.52,204.49 74.67,146.47 "/>
   <path class="fil0" d="M296.67 67.54c17.16,3.89 34.22,-6.88 38.1,-24.03 3.89,-17.16 -6.87,-34.22 -24.03,-38.11 -17.16,-3.89 -34.22,6.88 -38.11,24.03 -3.88,17.16 6.88,34.23 24.04,38.11z"/>
   <path class="fil1 str0" d="M296.67 67.54c17.16,3.89 34.22,-6.88 38.1,-24.03 3.89,-17.16 -6.87,-34.22 -24.03,-38.11 -17.16,-3.89 -34.22,6.88 -38.11,24.03 -3.88,17.16 6.88,34.23 24.04,38.11z"/>
   <polygon class="fil0" points="75.87,144.07 255.14,304.42 359.88,286.68 180.2,125.37 "/>
   <polygon class="fil0" points="351.61,54.01 320.41,114.72 385.28,172.75 455.33,33.73 "/>
   <polygon class="fil0" points="100.06,32.53 279.75,193.83 384.07,175.14 204.8,14.78 "/>
   <polygon class="fil0" points="4.62,285.47 108.33,265.19 139.52,204.49 74.67,146.47 "/>
   <path class="fil0" d="M296.67 67.54c17.16,3.89 34.22,-6.88 38.1,-24.03 3.89,-17.16 -6.87,-34.22 -24.03,-38.11 -17.16,-3.89 -34.22,6.88 -38.11,24.03 -3.88,17.16 6.88,34.23 24.04,38.11z"/>
   <polygon class="fil1 str1" points="75.87,144.07 180.19,125.37 140.75,202.11 "/>
   <polygon class="fil2" points="75.87,144.07 180.19,125.37 140.75,202.11 "/>
   <polygon class="fil1 str2" points="384.07,175.14 279.75,193.83 319.18,117.1 "/>
   <polygon class="fil2" points="384.07,175.14 279.75,193.83 319.18,117.1 "/>
   <path class="fil0 str0" d="M356.72 255.66l36.23 0 36 -66.2 0 -0.01c5.94,-9.46 19.47,-18.16 29.39,-17.67l-6.27 -25.49 -24.49 0.29c-9.02,0.76 -16.77,7.88 -21.67,16.56 -16.9,29.97 -32.9,62.02 -49.2,92.51z"/>
   <path class="fil0" d="M467.82 210.33l23.68 -43.27c7.4,-13.09 19.35,-20.47 37.09,-20.6l150.4 -1.04 -32.08 28.12 -110.29 0c-8.5,-0.24 -14.12,3.13 -17.51,9.27l-29.67 56.37c-6.24,8.61 -10.92,14.59 -20.73,16.48l-23.65 0 -16.12 -66.21c7.97,-6.93 20.59,-13.63 30.51,-13.13l8.37 34z"/>
   <path class="fil1 str0" d="M467.82 210.33l23.68 -43.27c7.4,-13.09 19.35,-20.47 37.09,-20.6l150.4 -1.04 -32.08 28.12 -110.29 0c-8.5,-0.24 -14.12,3.13 -17.51,9.27l-29.67 56.37c-6.24,8.61 -10.92,14.59 -20.73,16.48l-23.65 0 -16.12 -66.21c7.97,-6.93 20.59,-13.63 30.51,-13.13l8.37 34z"/>
   <polygon class="fil0" points="514.13,253.59 549.2,253.59 585.34,173.55 583.52,177.56 547.53,177.56 "/>
   <polygon class="fil1 str0" points="514.13,253.59 549.2,253.59 585.34,173.55 583.52,177.56 547.53,177.56 "/>
   <path class="fil0" d="M664.93 211.39c-2.56,5.97 -6.4,11 -11.56,15.12 -5.26,4.2 -10.49,6.29 -15.69,6.29l-46.82 0 -8.9 20.8 -14.9 0 27.36 -63.8 61.68 0c5.2,0 8.63,2.13 10.28,6.36 1.62,4.1 1.13,9.19 -1.45,15.23zm-14.88 0c1.92,-4.48 1.79,-6.7 -0.32,-6.7l-46.81 0 -5.67 13.23 46.8 0c2.13,0 4.14,-2.17 6.01,-6.53zm80.08 42.21l-15.05 0 10.54 -24.55 -48.58 0 -10.52 24.55 -14.88 0 27.34 -63.8 14.89 0 -10.47 24.44 48.55 0 10.48 -24.44 15.05 0 -27.34 63.8zm84.83 0l-14.82 0 8.71 -20.3 -39.19 0 6.37 -14.88 39.2 0 3.82 -8.9c1.37,-3.23 0.96,-4.83 -1.2,-4.83l-42.08 0c-2.07,0 -3.79,1.6 -5.18,4.83l-18.89 44.08 -14.89 0 18.9 -44.08c2.31,-5.38 5.96,-9.99 10.89,-13.78 5.1,-3.94 10.3,-5.93 15.53,-5.93l42.08 0c5.25,0 8.74,1.99 10.51,5.93 1.74,3.8 1.44,8.4 -0.87,13.78l-18.89 44.08zm81.47 0l-20.31 0 -16.47 -35.79 38.28 0c2.69,0 4.98,-2.19 6.85,-6.54 1.88,-4.39 1.46,-6.58 -1.22,-6.58l-46.09 0 -20.95 48.91 -14.88 0 27.34 -63.8 61.8 0c5.35,0 8.82,2.1 10.41,6.3 1.58,4.03 1.09,9.08 -1.52,15.17 -2.6,6.09 -6.45,11.15 -11.48,15.19 -5.16,4.15 -10.43,6.21 -15.78,6.21l-5.68 0 9.71 20.93z"/>
   <path class="fil1 str0" d="M664.93 211.39c-2.56,5.97 -6.4,11 -11.56,15.12 -5.26,4.2 -10.49,6.29 -15.69,6.29l-46.82 0 -8.9 20.8 -14.9 0 27.36 -63.8 61.68 0c5.2,0 8.63,2.13 10.28,6.36 1.62,4.1 1.13,9.19 -1.45,15.23m-14.88 0c1.92,-4.48 1.79,-6.7 -0.32,-6.7l-46.81 0 -5.67 13.23 46.8 0c2.13,0 4.14,-2.17 6.01,-6.53m80.08 42.21l-15.05 0 10.54 -24.55 -48.58 0 -10.52 24.55 -14.88 0 27.34 -63.8 14.89 0 -10.47 24.44 48.55 0 10.48 -24.44 15.05 0 -27.34 63.8zm84.83 0l-14.82 0 8.71 -20.3 -39.19 0 6.37 -14.88 39.2 0 3.82 -8.9c1.37,-3.23 0.96,-4.83 -1.2,-4.83l-42.08 0c-2.07,0 -3.79,1.6 -5.18,4.83l-18.89 44.08 -14.89 0 18.9 -44.08c2.31,-5.38 5.96,-9.99 10.89,-13.78 5.1,-3.94 10.3,-5.93 15.53,-5.93l42.08 0c5.25,0 8.74,1.99 10.51,5.93 1.74,3.8 1.44,8.4 -0.87,13.78l-18.89 44.08zm81.47 0l-20.31 0 -16.47 -35.79 38.28 0c2.69,0 4.98,-2.19 6.85,-6.54 1.88,-4.39 1.46,-6.58 -1.22,-6.58l-46.09 0 -20.95 48.91 -14.88 0 27.34 -63.8 61.8 0c5.35,0 8.82,2.1 10.41,6.3 1.58,4.03 1.09,9.08 -1.52,15.17 -2.6,6.09 -6.45,11.15 -11.48,15.19 -5.16,4.15 -10.43,6.21 -15.78,6.21l-5.68 0 9.71 20.93z"/>
   <path class="fil0" d="M356.72 255.66l36.23 0 36 -66.2 0 -0.01c5.94,-9.46 19.47,-18.16 29.39,-17.67l-6.27 -25.49 -24.49 0.29c-9.02,0.76 -16.77,7.88 -21.67,16.56 -16.9,29.97 -32.9,62.02 -49.2,92.51z"/>
   <path class="fil0" d="M467.82 210.33l23.68 -43.27c7.4,-13.09 19.35,-20.47 37.09,-20.6l150.4 -1.04 -32.08 28.12 -110.29 0c-8.5,-0.24 -14.12,3.13 -17.51,9.27l-29.67 56.37c-6.24,8.61 -10.92,14.59 -20.73,16.48l-23.65 0 -16.12 -66.21c7.97,-6.93 20.59,-13.63 30.51,-13.13l8.37 34z"/>
   <polygon class="fil0" points="514.13,253.59 549.2,253.59 585.34,173.55 583.52,177.56 547.53,177.56 "/>
   <path class="fil0" d="M664.93 211.39c-2.56,5.97 -6.4,11 -11.56,15.12 -5.26,4.2 -10.49,6.29 -15.69,6.29l-46.82 0 -8.9 20.8 -14.9 0 27.36 -63.8 61.68 0c5.2,0 8.63,2.13 10.28,6.36 1.62,4.1 1.13,9.19 -1.45,15.23zm-14.88 0c1.92,-4.48 1.79,-6.7 -0.32,-6.7l-46.81 0 -5.67 13.23 46.8 0c2.13,0 4.14,-2.17 6.01,-6.53zm80.08 42.21l-15.05 0 10.54 -24.55 -48.58 0 -10.52 24.55 -14.88 0 27.34 -63.8 14.89 0 -10.47 24.44 48.55 0 10.48 -24.44 15.05 0 -27.34 63.8zm84.83 0l-14.82 0 8.71 -20.3 -39.19 0 6.37 -14.88 39.2 0 3.82 -8.9c1.37,-3.23 0.96,-4.83 -1.2,-4.83l-42.08 0c-2.07,0 -3.79,1.6 -5.18,4.83l-18.89 44.08 -14.89 0 18.9 -44.08c2.31,-5.38 5.96,-9.99 10.89,-13.78 5.1,-3.94 10.3,-5.93 15.53,-5.93l42.08 0c5.25,0 8.74,1.99 10.51,5.93 1.74,3.8 1.44,8.4 -0.87,13.78l-18.89 44.08zm81.47 0l-20.31 0 -16.47 -35.79 38.28 0c2.69,0 4.98,-2.19 6.85,-6.54 1.88,-4.39 1.46,-6.58 -1.22,-6.58l-46.09 0 -20.95 48.91 -14.88 0 27.34 -63.8 61.8 0c5.35,0 8.82,2.1 10.41,6.3 1.58,4.03 1.09,9.08 -1.52,15.17 -2.6,6.09 -6.45,11.15 -11.48,15.19 -5.16,4.15 -10.43,6.21 -15.78,6.21l-5.68 0 9.71 20.93z"/>
   <path class="fil3" d="M677.3 280.92c-1.75,0 -2.79,-1.04 -2.79,-2.79 0,-1.74 1.05,-2.78 2.79,-2.78 1.74,0 2.79,1.04 2.79,2.78 0,1.76 -1.05,2.79 -2.79,2.79zm151.6 0c-1.72,0 -2.75,-1.04 -2.75,-2.79 0,-1.74 1.03,-2.78 2.75,-2.78 1.76,0 2.79,1.04 2.79,2.78 0,1.76 -1.03,2.79 -2.79,2.79zm-236.36 25.15c-0.5,0 -1.23,-0.16 -1.87,-0.97l-18.12 -23.91 0 22.58c0,1.43 -0.88,2.3 -2.33,2.3 -1.45,0 -2.35,-0.87 -2.35,-2.3l0 -29.35c0,-1.45 0.91,-2.35 2.4,-2.35 0.75,0 1.44,0.35 1.9,1l18.06 23.92 0 -22.57c0,-1.45 0.9,-2.35 2.35,-2.35 1.43,0 2.34,0.9 2.34,2.35l0 29.35c0,1.43 -0.91,2.3 -2.38,2.3zm48.28 0c-1.5,0 -2.42,-0.91 -2.42,-2.39l0 -16.01 -3.18 0c-1.33,0 -2.16,-0.83 -2.16,-2.18 0,-1.32 0.83,-2.16 2.16,-2.16l3.18 0 0 -5.58c0,-1.48 0.92,-2.4 2.42,-2.4 1.47,0 2.39,0.92 2.39,2.4l0 5.58 3.75 0c1.33,0 2.17,0.84 2.17,2.16 0,1.35 -0.84,2.18 -2.17,2.18l-3.75 0 0 16.01c0,1.48 -0.92,2.39 -2.39,2.39zm16.85 0c-1.47,0 -2.38,-0.91 -2.38,-2.39l0 -18.33c0,-1.48 0.91,-2.39 2.38,-2.39 1.42,0 2.31,0.81 2.42,2.13 1.41,-1.41 3.36,-2.13 5.77,-2.13 1.48,0 2.4,0.84 2.4,2.22 0,1.39 -0.92,2.25 -2.4,2.25 -1.68,0 -3.02,0.71 -4.09,2.18 -1.13,1.55 -1.67,3.5 -1.67,5.95l0 8.12c0,1.48 -0.93,2.39 -2.43,2.39zm19.63 0c-1.49,0 -2.43,-0.91 -2.43,-2.39l0 -18.33c0,-1.5 0.91,-2.39 2.43,-2.39 1.48,0 2.4,0.91 2.4,2.39l0 18.33c0,1.48 -0.92,2.39 -2.4,2.39zm62.75 0c-1.47,0 -2.39,-0.91 -2.39,-2.39l0 -10.44c0,-4.04 -1.78,-5.91 -5.58,-5.91 -1.76,0 -3.17,0.58 -4.31,1.76 -1.17,1.2 -1.73,2.76 -1.73,4.78l0 9.81c0,1.48 -0.93,2.39 -2.42,2.39 -1.48,0 -2.4,-0.91 -2.4,-2.39l0 -29.21c0,-1.48 0.92,-2.41 2.4,-2.41 1.49,0 2.42,0.93 2.42,2.41l0 10.53c1.67,-1.48 3.92,-2.23 6.65,-2.23 2.98,0 5.38,1.01 7.18,2.98 1.73,1.93 2.61,4.44 2.61,7.44l0 10.48c0,1.48 -0.93,2.39 -2.43,2.39zm42.64 0c-1.48,0 -2.4,-0.91 -2.4,-2.39l0 -18.33c0,-1.48 0.92,-2.39 2.4,-2.39 1.4,0 2.3,0.81 2.42,2.12 1.4,-1.4 3.35,-2.12 5.77,-2.12 1.76,0 2.39,1.15 2.39,2.22 0,1.39 -0.92,2.25 -2.39,2.25 -1.68,0 -3.04,0.72 -4.11,2.18 -1.11,1.54 -1.66,3.49 -1.66,5.95l0 8.12c0,1.48 -0.93,2.39 -2.42,2.39zm-167.88 0.21c-2.95,0 -5.36,-1.02 -7.17,-3.02 -1.73,-1.92 -2.6,-4.42 -2.6,-7.43l0 -10.48c0,-1.48 0.92,-2.39 2.4,-2.39 1.49,0 2.42,0.91 2.42,2.39l0 10.44c0,4.03 1.76,5.91 5.57,5.91 1.76,0 3.17,-0.58 4.27,-1.75 1.2,-1.22 1.78,-2.78 1.78,-4.78l0 -9.82c0,-1.48 0.91,-2.39 2.38,-2.39 1.51,0 2.43,0.91 2.43,2.39l0 18.33c0,1.48 -0.92,2.39 -2.43,2.39 -1.35,0 -2.24,-0.78 -2.37,-2.05 -1.69,1.5 -3.93,2.26 -6.69,2.26zm145.85 -10.3c-5.01,0 -5.01,2.28 -5.01,3.14 0,1.43 0.54,3.07 4.83,3.07 1.61,0 2.93,-0.31 4.06,-0.96 1.36,-0.79 1.51,-1.59 1.51,-2.11 0,-0.54 -0.15,-1.35 -1.51,-2.18 -1.08,-0.64 -2.38,-0.96 -3.88,-0.96zm-0.62 10.3c-2.68,0 -4.91,-0.66 -6.6,-1.97 -1.73,-1.35 -2.6,-3.1 -2.6,-5.2 0,-2.23 0.94,-4.02 2.78,-5.34 1.73,-1.25 4.05,-1.9 6.86,-1.9 1.58,0 3.07,0.3 4.39,0.87 0.42,0.18 0.82,0.38 1.18,0.59l0 -0.68c0,-3.74 -1.84,-5.48 -5.79,-5.48 -1.75,0 -3.56,0.38 -5.4,1.13 -0.12,0.05 -0.93,0.22 -1.06,0.22 -1.35,0 -2.21,-0.84 -2.21,-2.18 0,-0.47 0.16,-1.32 1.2,-1.9 2.19,-1.1 4.76,-1.66 7.69,-1.66 6.79,0 10.38,3.39 10.38,9.83l0 11.07c0,1.48 -0.92,2.39 -2.4,2.39 -1.11,0 -1.91,-0.52 -2.23,-1.4 -1.62,1.07 -3.69,1.61 -6.18,1.61zm89.68 0c-3.35,0 -6.23,-0.99 -8.53,-2.92 -0.58,-0.43 -0.91,-1.08 -0.91,-1.84 0,-1.23 0.81,-2.03 2.05,-2.03 0.13,0 0.87,0.13 0.99,0.18 0.27,0.1 0.54,0.27 0.79,0.51 1.64,1.28 3.53,1.93 5.77,1.93 4.25,0 4.25,-1.74 4.25,-2.38 0,-0.47 -0.13,-1.08 -1.09,-1.67 -0.37,-0.21 -0.88,-0.43 -1.52,-0.63 -0.29,-0.11 -2.07,-0.63 -2.07,-0.63 -3.19,-0.88 -5.43,-1.88 -6.82,-3.04 -1.41,-1.19 -2.12,-2.71 -2.12,-4.55 0,-2.93 1.57,-6.43 9.06,-6.43 2.41,0 4.7,0.6 6.83,1.76 1.18,0.59 1.78,1.37 1.78,2.29 0,1.28 -0.83,2.08 -2.16,2.08 -0.43,0 -0.93,-0.16 -1.62,-0.56 -1.6,-0.84 -3.25,-1.28 -4.87,-1.28 -4.3,0 -4.3,1.55 -4.3,2.06 0,1.16 1.78,2.29 5,3.2 1.41,0.42 2.5,0.78 3.28,1.09 1.16,0.44 2.01,0.85 2.69,1.31 1.75,1.19 2.64,2.83 2.64,4.86 0,3.06 -1.58,6.69 -9.12,6.69zm27.84 0c-3.32,0 -6.14,-1.13 -8.38,-3.36 -2.24,-2.24 -3.37,-5.06 -3.37,-8.4 0,-3.33 1.13,-6.16 3.37,-8.41 2.23,-2.21 5.05,-3.33 8.38,-3.33 2.01,0 3.86,0.43 5.52,1.28 1.53,0.79 2.73,1.83 3.59,3.11 0.3,0.45 0.45,0.9 0.45,1.38 0,1.06 -0.62,2.19 -2.36,2.19 -0.2,0 -0.96,-0.25 -1.14,-0.36 -0.24,-0.14 -0.47,-0.4 -0.63,-0.57 -1.45,-1.75 -3.23,-2.59 -5.43,-2.59 -2.01,0 -3.63,0.69 -4.94,2.11 -1.32,1.4 -1.98,3.11 -1.98,5.21 0,2.1 0.65,3.8 1.97,5.2 1.34,1.43 2.96,2.12 4.96,2.12 2.21,0 3.98,-0.85 5.43,-2.59 0.05,-0.07 0.51,-0.51 0.57,-0.54 0.42,-0.29 0.79,-0.39 1.19,-0.39 1.75,0 2.36,1.12 2.36,2.18 0,0.47 -0.15,0.95 -0.46,1.4 -0.84,1.25 -2.04,2.29 -3.58,3.09 -1.68,0.87 -3.53,1.31 -5.52,1.31zm-72.44 7.04c-1.36,0 -2.22,-0.81 -2.22,-2.12 0,-0.11 0.11,-0.72 0.15,-0.84 0.87,-2.61 1.25,-4.75 1.25,-6.82l0 -2.02c0,-1.44 0.87,-2.33 2.28,-2.33 1.39,0 2.26,0.89 2.26,2.33l0 2.02c0,2.83 -0.45,5.47 -1.33,7.84 -0.6,1.69 -1.75,1.94 -2.39,1.94zm-103.96 -26.16c-2.1,0 -3.75,0.7 -5.08,2.14 -1.29,1.4 -1.91,3.13 -1.91,5.21 0,2.1 0.63,3.8 1.91,5.21 1.33,1.45 2.98,2.16 5.08,2.16 2.05,0 3.68,-0.66 4.97,-2.02 1.27,-1.37 1.9,-3.11 1.9,-5.34 0,-2.23 -0.63,-3.97 -1.9,-5.33 -1.29,-1.36 -2.91,-2.02 -4.97,-2.02zm-9.42 27.69c-1.47,0 -2.38,-0.92 -2.38,-2.39l0 -27.11c0,-1.48 0.91,-2.39 2.38,-2.39 1.49,0 2.43,0.91 2.43,2.39l0 0.04c1.94,-1.74 4.42,-2.62 7.4,-2.62 3.17,0 5.86,1.12 8,3.33 2.18,2.23 3.28,5.06 3.28,8.41 0,3.36 -1.1,6.18 -3.28,8.42 -2.15,2.22 -4.85,3.34 -8,3.34 -3,0 -5.46,-0.88 -7.4,-2.63l0 8.81c0,1.47 -0.94,2.39 -2.43,2.39zm131.15 0c-1.31,0 -2.16,-0.85 -2.16,-2.16 0,-1.33 0.83,-2.17 2.16,-2.17 1.48,0 2.65,-0.14 3.09,-0.75 0.16,-0.21 0.51,-0.93 0.51,-3.03l0 -21.38c0,-1.48 0.92,-2.39 2.4,-2.39 1.49,0 2.42,0.91 2.42,2.39l0 21.55c0,5.21 -2.64,7.95 -7.62,7.95l-0.8 0z"/>
   <path class="fil4" d="M593.91 303.76c0,0.88 -0.46,1.32 -1.37,1.32 -0.41,0 -0.77,-0.2 -1.08,-0.6l-19.91 -26.26 0 25.55c0,0.88 -0.43,1.32 -1.32,1.32 -0.9,0 -1.36,-0.44 -1.36,-1.32l0 -29.34c0,-0.9 0.48,-1.36 1.42,-1.36 0.44,0 0.81,0.2 1.09,0.6l19.86 26.31 0 -25.55c0,-0.9 0.44,-1.36 1.34,-1.36 0.89,0 1.33,0.46 1.33,1.36l0 29.34zm12.12 -18.41c0,-0.94 0.47,-1.4 1.4,-1.4 0.95,0 1.42,0.46 1.42,1.4l0 10.44c0,4.6 2.19,6.91 6.58,6.91 2.04,0 3.7,-0.68 5,-2.05 1.36,-1.39 2.04,-3.21 2.04,-5.48l0 -9.81c0,-0.94 0.46,-1.4 1.4,-1.4 0.95,0 1.43,0.46 1.43,1.4l0 18.32c0,0.94 -0.48,1.41 -1.43,1.41 -0.94,0 -1.4,-0.47 -1.4,-1.41l0 -2.44c-1.56,2.7 -4.13,4.05 -7.67,4.05 -2.67,0 -4.81,-0.9 -6.43,-2.69 -1.56,-1.74 -2.35,-3.99 -2.35,-6.76l0 -10.48zm40.93 -1.03c0.78,0 1.17,0.39 1.17,1.17 0,0.79 -0.39,1.19 -1.17,1.19l-4.75 0 0 16.99c0,0.94 -0.47,1.41 -1.39,1.41 -0.96,0 -1.43,-0.47 -1.43,-1.41l0 -16.99 -4.17 0c-0.78,0 -1.18,-0.4 -1.18,-1.19 0,-0.78 0.4,-1.17 1.18,-1.17l4.17 0 0 -6.58c0,-0.94 0.48,-1.4 1.43,-1.4 0.92,0 1.39,0.47 1.39,1.4l0 6.58 4.75 0zm20.31 0.85c0,0.82 -0.47,1.25 -1.41,1.25 -2,0 -3.63,0.86 -4.9,2.58 -1.23,1.71 -1.86,3.87 -1.86,6.54l0 8.12c0,0.94 -0.48,1.41 -1.42,1.41 -0.94,0 -1.4,-0.47 -1.4,-1.41l0 -18.32c0,-0.94 0.46,-1.4 1.4,-1.4 0.94,0 1.42,0.46 1.42,1.4l0 3.3c1.04,-3.14 3.29,-4.7 6.76,-4.7 0.94,0 1.41,0.4 1.41,1.22zm11.43 18.49c0,0.94 -0.47,1.41 -1.4,1.41 -0.95,0 -1.43,-0.47 -1.43,-1.41l0 -18.32c0,-0.94 0.48,-1.4 1.43,-1.4 0.93,0 1.4,0.46 1.4,1.4l0 18.32zm-3.19 -25.55c0,-1.2 0.6,-1.78 1.79,-1.78 1.19,0 1.79,0.59 1.79,1.78 0,1.2 -0.6,1.79 -1.79,1.79 -1.2,0 -1.79,-0.59 -1.79,-1.79zm17.67 9.96c1.91,-2.88 4.7,-4.31 8.39,-4.31 2.9,0 5.34,1.01 7.29,3.03 2.01,2.05 3.01,4.62 3.01,7.72 0,3.1 -0.99,5.66 -3.01,7.72 -1.96,2.02 -4.39,3.04 -7.29,3.04 -3.69,0 -6.47,-1.44 -8.39,-4.34l0 11.51c0,0.94 -0.49,1.41 -1.43,1.41 -0.93,0 -1.4,-0.47 -1.4,-1.41l0 -27.1c0,-0.94 0.47,-1.4 1.4,-1.4 0.94,0 1.43,0.46 1.43,1.4l0 2.73zm15.86 6.44c0,-2.45 -0.72,-4.47 -2.18,-6.02 -1.47,-1.56 -3.37,-2.34 -5.71,-2.34 -2.36,0 -4.3,0.82 -5.8,2.47 -1.44,1.59 -2.17,3.56 -2.17,5.89 0,2.35 0.73,4.29 2.17,5.88 1.51,1.65 3.44,2.48 5.8,2.48 2.34,0 4.24,-0.78 5.71,-2.35 1.46,-1.56 2.18,-3.56 2.18,-6.01zm32.44 9.15c0,0.94 -0.48,1.41 -1.42,1.41 -0.93,0 -1.4,-0.47 -1.4,-1.41l0 -10.44c0,-4.6 -2.2,-6.91 -6.59,-6.91 -2.02,0 -3.7,0.7 -5.01,2.05 -1.34,1.39 -2.01,3.22 -2.01,5.48l0 9.81c0,0.94 -0.48,1.41 -1.44,1.41 -0.93,0 -1.39,-0.47 -1.39,-1.41l0 -29.21c0,-0.94 0.46,-1.41 1.39,-1.41 0.96,0 1.44,0.47 1.44,1.41l0 13.35c1.55,-2.7 4.11,-4.05 7.65,-4.05 2.68,0 4.82,0.88 6.43,2.66 1.57,1.75 2.36,4.01 2.36,6.77l0 10.47zm28.38 0c0,0.94 -0.47,1.41 -1.41,1.41 -0.93,0 -1.4,-0.47 -1.4,-1.41l0 -1.03c-1.57,1.76 -3.91,2.64 -7.01,2.64 -2.48,0 -4.47,-0.59 -5.99,-1.76 -1.47,-1.15 -2.22,-2.63 -2.22,-4.42 0,-1.87 0.78,-3.38 2.36,-4.51 1.57,-1.14 3.66,-1.73 6.27,-1.73 1.45,0 2.79,0.27 4.02,0.78 1.12,0.48 1.98,1.08 2.56,1.75l0 -2.75c0,-4.33 -2.27,-6.48 -6.8,-6.48 -1.88,0 -3.81,0.4 -5.78,1.2l-0.28 0.1c-0.15,0.03 -0.27,0.05 -0.39,0.05 -0.81,0 -1.21,-0.4 -1.21,-1.19 0,-0.43 0.23,-0.76 0.68,-1.03 2.02,-1.01 4.43,-1.53 7.2,-1.53 6.25,0 9.39,2.94 9.39,8.82l0 11.08zm-2.8 -4.56c0,-1.22 -0.66,-2.22 -1.99,-3.03 -1.23,-0.72 -2.7,-1.09 -4.41,-1.09 -4,0 -6.01,1.38 -6.01,4.13 0,2.72 1.94,4.08 5.83,4.08 1.79,0 3.3,-0.37 4.56,-1.09 1.36,-0.79 2.02,-1.78 2.02,-2.99zm25.21 -13.93c0,0.82 -0.46,1.25 -1.4,1.25 -2,0 -3.64,0.86 -4.91,2.58 -1.23,1.71 -1.85,3.87 -1.85,6.54l0 8.12c0,0.94 -0.48,1.41 -1.43,1.41 -0.93,0 -1.4,-0.47 -1.4,-1.41l0 -18.32c0,-0.94 0.47,-1.4 1.4,-1.4 0.95,0 1.43,0.46 1.43,1.4l0 3.3c1.04,-3.14 3.29,-4.7 6.76,-4.7 0.94,0 1.4,0.4 1.4,1.22zm15.59 18.36c0,2.71 -0.42,5.21 -1.27,7.5 -0.3,0.85 -0.8,1.28 -1.45,1.28 -0.83,0 -1.22,-0.38 -1.22,-1.12 0,-0.17 0.03,-0.35 0.09,-0.51 0.02,-0.06 0.04,-0.14 0.07,-0.23l0.07 -0.21c0.77,-2.31 1.16,-4.55 1.16,-6.71l0 -2.01c0,-0.9 0.44,-1.34 1.29,-1.34 0.85,0 1.27,0.44 1.27,1.34l0 2.01zm15.61 7.97c1.67,0 2.78,-0.39 3.33,-1.16 0.47,-0.65 0.71,-1.86 0.71,-3.63l0 -21.37c0,-0.94 0.47,-1.4 1.41,-1.4 0.94,0 1.42,0.46 1.42,1.4l0 21.55c0,4.63 -2.2,6.95 -6.63,6.95l-0.8 0c-0.78,0 -1.18,-0.4 -1.18,-1.16 0,-0.79 0.4,-1.19 1.18,-1.19l0.57 0zm3.68 -33.39c0,-1.2 0.59,-1.78 1.76,-1.78 1.2,0 1.78,0.59 1.78,1.78 0,1.2 -0.59,1.79 -1.78,1.79 -1.18,0 -1.76,-0.59 -1.76,-1.79zm30.71 21.47c0,3.78 -2.71,5.69 -8.13,5.69 -3.13,0 -5.76,-0.9 -7.88,-2.69 -0.39,-0.29 -0.58,-0.65 -0.58,-1.07 0,-0.69 0.37,-1.04 1.08,-1.04 0.22,0 0.42,0.04 0.63,0.11 0.16,0.05 0.31,0.16 0.46,0.29 1.87,1.48 4.01,2.21 6.45,2.21 3.5,0 5.24,-1.12 5.24,-3.37 0,-1.06 -0.51,-1.9 -1.55,-2.52 -0.44,-0.25 -1.02,-0.51 -1.72,-0.74 -0.28,-0.1 -0.64,-0.2 -1.03,-0.31l-1.08 -0.32c-3.03,-0.84 -5.19,-1.8 -6.46,-2.85 -1.19,-0.99 -1.76,-2.25 -1.76,-3.78 0,-3.63 2.68,-5.43 8.07,-5.43 2.23,0 4.35,0.54 6.36,1.63 0.84,0.43 1.27,0.9 1.27,1.42 0,0.72 -0.4,1.08 -1.18,1.08 -0.25,0 -0.62,-0.15 -1.12,-0.43 -1.78,-0.93 -3.57,-1.41 -5.37,-1.41 -3.53,0 -5.29,1.02 -5.29,3.06 0,1.7 1.9,3.08 5.73,4.17 1.35,0.4 2.42,0.75 3.17,1.07 1.04,0.39 1.87,0.78 2.51,1.2 1.46,1 2.21,2.35 2.21,4.05zm19.72 -15.83c1.84,0 3.52,0.39 5.05,1.17 1.4,0.72 2.47,1.65 3.21,2.78 0.2,0.28 0.29,0.54 0.29,0.83 0,0.79 -0.45,1.2 -1.37,1.2 -0.2,0 -0.39,-0.08 -0.58,-0.2 -0.11,-0.08 -0.26,-0.2 -0.41,-0.39 -1.64,-1.97 -3.71,-2.95 -6.19,-2.95 -2.28,0 -4.17,0.8 -5.69,2.42 -1.5,1.59 -2.24,3.56 -2.24,5.89 0,2.34 0.75,4.29 2.24,5.88 1.53,1.62 3.41,2.43 5.69,2.43 2.47,0 4.55,-0.99 6.19,-2.96 0.16,-0.17 0.3,-0.29 0.41,-0.39 0.19,-0.12 0.38,-0.17 0.58,-0.17 0.92,0 1.37,0.39 1.37,1.19 0,0.27 -0.09,0.55 -0.29,0.84 -0.75,1.12 -1.81,2.04 -3.21,2.76 -1.52,0.79 -3.21,1.2 -5.05,1.2 -3.06,0 -5.63,-1.03 -7.67,-3.07 -2.06,-2.05 -3.08,-4.61 -3.08,-7.69 0,-3.09 1.02,-5.64 3.08,-7.71 2.04,-2.02 4.61,-3.04 7.67,-3.04z"/>
  </g>
 </g>
</svg>
